
<svg width="1440" height="900" viewBox="0 0 1440 900" fill="none" xmlns="http://www.w3.org/2000/svg">
<g clip-path="url(#clip0_144_2309)">
<g opacity="0.34" filter="url(#filter0_f_144_2309)">
<path d="M3.91576 18.2293C3.96552 7.18372 12.9601 -1.73017 24.0057 -1.6804L1421.49 4.61562C1432.54 4.66538 1441.45 13.6599 1441.4 24.7055L1437.53 884.719C1437.48 895.765 1428.48 904.679 1417.44 904.629L19.9509 898.333C8.90532 898.283 -0.0085763 889.288 0.0411867 878.243L3.91576 18.2293Z" fill="url(#paint0_radial_144_2309)"/>
<path d="M3.91576 18.2293C3.96552 7.18372 12.9601 -1.73017 24.0057 -1.6804L1421.49 4.61562C1432.54 4.66538 1441.45 13.6599 1441.4 24.7055L1437.53 884.719C1437.48 895.765 1428.48 904.679 1417.44 904.629L19.9509 898.333C8.90532 898.283 -0.0085763 889.288 0.0411867 878.243L3.91576 18.2293Z" fill="black" fill-opacity="0.64"/>
<path d="M24.0034 -1.18041L1421.49 5.11561C1432.26 5.16413 1440.95 13.9338 1440.9 24.7033L1437.03 884.717C1436.98 895.486 1428.21 904.177 1417.44 904.129L19.9532 897.833C9.18371 897.784 0.492663 889.015 0.541182 878.245L4.41575 18.2316C4.46427 7.46211 13.234 -1.22893 24.0034 -1.18041Z" stroke="black" stroke-opacity="0.4"/>
</g>
<g style="mix-blend-mode:exclusion">
<path d="M369.602 435.761C390.036 432.046 392.822 423.686 377.961 410.683C361.242 397.679 363.1 389.32 383.534 385.604C403.968 383.747 406.755 375.387 391.893 360.526C375.175 347.523 377.032 340.092 397.466 338.234" stroke="#EE7C2B" stroke-width="4" stroke-linecap="round"/>
<path d="M1179.45 648.131L1179.44 631.883L1192.34 620.884L1174.65 618.506L1168.43 602.74L1160.79 617.081L1144.55 617.091L1155.55 629.987L1149.34 646.717L1165.11 640.494L1179.45 648.131Z" fill="#FF6633"/>
<path d="M316.658 729.734L238.637 757.599" stroke="#EE7C2B" stroke-width="4" stroke-linecap="round"/>
<path d="M1117.68 230.628L1119.59 213.786L1136 207.346L1121.64 199.727L1120.77 183.031L1107.44 194.891L1090.45 190.201L1099.67 206.459L1089.27 220.956L1105.82 217.298L1117.68 230.628Z" fill="#EB4770"/>
<path d="M673.327 451.086L742.989 490.097L684.473 537.467L673.327 451.086Z" fill="#EB4770"/>
<path d="M1328.15 152.933L1364.37 214.235L1297.5 225.381L1328.15 152.933Z" fill="#F2675A"/>
<path d="M912.965 466.411C916.68 442.262 906.463 430.187 882.314 430.187C858.164 432.045 847.947 419.97 851.662 393.963C855.378 371.671 845.16 360.525 821.011 360.525C796.862 360.525 786.644 348.45 790.36 324.301" stroke="#EB4770" stroke-width="3" stroke-linecap="round"/>
<path d="M1252.92 832.834L1191.61 885.777L1147.03 832.834L1208.33 779.891L1252.92 832.834Z" fill="#DD3C8C"/>
<path d="M756.922 162.686C734.63 168.259 728.128 182.191 737.416 204.483C748.562 226.775 742.06 241.636 717.911 249.066C693.761 254.639 687.26 267.643 698.405 288.077C709.551 312.227 703.05 327.088 678.9 332.661" stroke="#FF6633" stroke-width="3" stroke-linecap="round"/>
<path d="M1342.41 386.097L1371.82 404.913L1372.07 441.244L1398.84 417.976L1434.39 428.842L1419.85 397.099L1441.45 367.883L1407.9 368.33L1384.63 341.564L1376.74 374.531L1342.41 386.097Z" fill="#FFE14C"/>
<path d="M51.1738 419.744L64.0109 425.159L64.6778 439.352L73.4703 428.544L86.3074 433.959L80.2332 421.114L89.0257 410.307L74.833 410.974L66.7292 401.507L64.0182 413.67L51.1738 419.744Z" fill="#FF6633"/>
<path d="M1424.28 566.725C1407.57 550.006 1391.78 551.863 1376.91 572.298C1365.77 592.732 1350.91 595.518 1332.33 580.657C1315.61 563.938 1300.75 565.796 1287.75 586.23C1274.74 606.664 1259.88 608.522 1243.16 591.803" stroke="#FF6633" stroke-width="4" stroke-linecap="round"/>
<path d="M1046.66 321.347L1028.07 328.975L1010.34 320.378L1014.1 339.719L997.014 355.083L1019.42 356.75L1027.05 375.34L1035.64 357.611L1057.29 355.41L1040.37 340.634L1046.66 321.347Z" fill="#EB4770"/>
<path d="M901.82 707.441L829.371 671.217L893.46 623.847L901.82 707.441Z" fill="#F2675A"/>
<path d="M341.738 210.055C360.314 210.055 362.172 204.482 347.311 193.336C330.592 184.048 331.521 179.404 350.097 179.404C370.531 179.404 372.389 174.76 355.67 165.471C338.951 156.183 339.88 151.539 358.457 151.539" stroke="#FFE14C" stroke-width="4" stroke-linecap="round"/>
<path d="M673.327 -25.4023L687.259 33.1137L609.238 52.619L595.305 -3.11052L673.327 -25.4023Z" fill="#EB4770"/>
<path d="M1013.28 746.452L1091.3 757.598L1082.94 813.328L1004.92 802.182L1013.28 746.452Z" fill="#F2675A"/>
<path d="M1180.38 12.7652C1181.86 -4.09864 1173.11 -18.6393 1160.85 -19.7123C1148.58 -20.7853 1137.44 -7.98436 1135.97 8.87945C1134.49 25.7432 1143.24 40.2839 1155.5 41.3569C1167.77 42.4299 1178.91 29.629 1180.38 12.7652Z" fill="#DD3C8C"/>
<path d="M104.886 506.815L260.929 573.691" stroke="#FF6633" stroke-width="3" stroke-linecap="round"/>
<path d="M901.818 41.4727L974.267 91.6293" stroke="#FF6633" stroke-width="4" stroke-linecap="round"/>
<path d="M269.289 63.7646L118.819 69.3376" stroke="#FFE14C" stroke-width="4" stroke-linecap="round"/>
<path d="M782.342 48.7361C774.135 33.9303 759.844 26.1617 750.422 31.3843C741.001 36.6069 740.016 52.8431 748.223 67.6488C756.43 82.4546 770.721 90.2233 780.143 85.0007C789.564 79.778 790.549 63.5418 782.342 48.7361Z" fill="#F2675A"/>
<path d="M228.722 261.368C241.329 252.541 247.254 239.254 241.958 231.69C236.662 224.126 222.149 225.15 209.543 233.977C196.937 242.804 191.011 256.092 196.307 263.655C201.603 271.219 216.116 270.195 228.722 261.368Z" fill="#EB4770"/>
<path d="M531.945 176.659L519.805 169.275L518.381 156.895L509.332 165.463L495.287 163.316L502.901 174.984L495.518 187.123L508.85 183.08L516.465 194.747L518.612 180.702L531.945 176.659Z" fill="#EB4770"/>
<path d="M525.646 687.937L486.635 671.218L511.713 615.488L550.724 632.207L525.646 687.937Z" fill="#FFE14C"/>
<path d="M433.691 821.688L489.421 949.865" stroke="#FFE14C" stroke-width="4" stroke-linecap="round"/>
<path d="M-1 186.371L65.8755 169.652" stroke="#DD3C8C" stroke-width="3" stroke-linecap="round"/>
<path d="M1335.42 -19.7259L1331.64 -11.7684L1320.57 -13.1267L1327.85 -3.81082L1324.07 4.14671L1332.7 2.39976L1340.66 6.18423L1338.91 -2.45248L1348.23 -9.73084L1337.17 -11.0892L1335.42 -19.7259Z" fill="#EB4770"/>
<path d="M1074.58 473.378L1055.08 504.029H1018.85L1041.14 531.894L1030 565.332L1063.43 551.399L1091.3 573.691V537.467L1119.16 517.962L1085.73 506.816L1074.58 473.378Z" fill="#EE7C2B"/>
</g>
</g>
<defs>
<filter id="filter0_f_144_2309" x="-19.959" y="-21.6807" width="1481.36" height="946.31" filterUnits="userSpaceOnUse" color-interpolation-filters="sRGB">
<feFlood flood-opacity="0" result="BackgroundImageFix"/>
<feBlend mode="normal" in="SourceGraphic" in2="BackgroundImageFix" result="shape"/>
<feGaussianBlur stdDeviation="10" result="effect1_foregroundBlur_144_2309"/>
</filter>
<radialGradient id="paint0_radial_144_2309" cx="0" cy="0" r="1" gradientUnits="userSpaceOnUse" gradientTransform="translate(-72.9332 660.327) rotate(-52.7925) scale(2406.8 782.422)">
<stop stop-color="#E5FF3A"/>
<stop offset="0.296875" stop-color="#DBAD3D"/>
<stop offset="0.541667" stop-color="#FFA281"/>
<stop offset="0.770833" stop-color="#C43D5D"/>
<stop offset="1" stop-color="#9C4A73"/>
</radialGradient>
<clipPath id="clip0_144_2309">
<rect width="1440" height="900" fill="white"/>
</clipPath>
</defs>
</svg>
