<svg width="604" height="737" viewBox="0 0 604 737" fill="none" xmlns="http://www.w3.org/2000/svg">
<mask id="mask0_523_7561" style="mask-type:alpha" maskUnits="userSpaceOnUse" x="0" y="0" width="604" height="737">
<g style="mix-blend-mode:multiply" opacity="0.5">
<rect x="0.171875" width="603" height="737" rx="30" fill="url(#paint0_linear_523_7561)"/>
</g>
</mask>
<g mask="url(#mask0_523_7561)">
<g style="mix-blend-mode:exclusion">
<path d="M225.499 50.0857L295.161 89.0964L236.645 136.466L225.499 50.0857Z" fill="#EB4770"/>
<path d="M465.137 65.4109C468.852 41.2614 458.635 29.1867 434.485 29.1867C410.336 31.0443 400.119 18.9696 403.834 -7.03752C407.549 -29.3293 397.332 -40.4753 373.183 -40.4753C349.033 -40.4753 338.816 -52.55 342.532 -76.6995" stroke="#EB4770" stroke-width="3" stroke-linecap="round"/>
<path d="M453.991 306.441L381.543 270.217L445.632 222.847L453.991 306.441Z" fill="#F2675A"/>
<path d="M565.449 345.452L643.471 356.598L635.111 412.328L557.09 401.182L565.449 345.452Z" fill="#F2675A"/>
<path d="M209.843 575.49L226.735 570.465L242.488 583.247L243.627 565.441L259.605 554.253L242.483 549.233L238.143 528.461L225.362 544.214L207.556 543.075L217.145 556.77L209.843 575.49Z" fill="#DD3C8C"/>
<path d="M553.03 614.54L551.576 584.955L573.555 567.603L544.108 561.177L534.705 535.395L522.472 558.829L492.887 560.283L512.244 580.327L503.882 607.77L529.664 598.367L553.03 614.54Z" fill="#F2675A"/>
<path d="M77.8173 286.937L38.8066 270.218L63.8849 214.488L102.896 231.207L77.8173 286.937Z" fill="#FFE14C"/>
<path d="M-14.1367 420.688L41.5928 548.866" stroke="#FFE14C" stroke-width="4" stroke-linecap="round"/>
<path d="M626.753 72.3779L607.248 103.029H571.023L593.315 130.894L582.169 164.332L615.607 150.399L643.472 172.691V136.467L671.337 116.962L637.899 105.816L626.753 72.3779Z" fill="#EE7C2B"/>
</g>
</g>
<defs>
<linearGradient id="paint0_linear_523_7561" x1="6.90179" y1="3.55194e-07" x2="502.239" y2="559.403" gradientUnits="userSpaceOnUse">
<stop stop-color="#5F5759"/>
<stop offset="0.713433" stop-color="#231E29"/>
</linearGradient>
</defs>
</svg>
