<svg width="336" height="532" viewBox="0 0 336 532" fill="none" xmlns="http://www.w3.org/2000/svg">
<path d="M286.34 404.769L286.335 395.675L293.553 389.518L283.655 388.187L280.172 379.362L275.897 387.389L266.803 387.395L272.96 394.613L269.488 403.977L278.313 400.494L286.34 404.769Z" fill="#FF6633"/>
<path d="M251.767 171.078L252.835 161.651L262.017 158.046L253.984 153.782L253.494 144.436L246.033 151.075L236.525 148.449L241.687 157.55L235.865 165.664L245.129 163.617L251.767 171.078Z" fill="#EB4770"/>
<path d="M3.04492 294.476L42.0372 316.312L9.28369 342.827L3.04492 294.476Z" fill="#EB4770"/>
<path d="M137.179 303.054C139.258 289.537 133.539 282.778 120.022 282.778C106.505 283.818 100.786 277.059 102.865 262.502C104.945 250.025 99.2261 243.786 85.7088 243.786C72.1914 243.786 66.4726 237.027 68.5521 223.51" stroke="#EB4770" stroke-width="3" stroke-linecap="round"/>
<path d="M327.461 508.154L293.148 537.788L268.193 508.154L302.506 478.52L327.461 508.154Z" fill="#DD3C8C"/>
<path d="M49.8354 133.048C37.3579 136.168 33.7186 143.966 38.9176 156.444C45.1564 168.921 41.5171 177.239 27.9997 181.399C14.4824 184.518 10.8431 191.797 17.0819 203.234C23.3207 216.752 19.6814 225.07 6.16406 228.189" stroke="#FF6633" stroke-width="3" stroke-linecap="round"/>
<path d="M423.382 359.203C414.024 349.845 405.186 350.885 396.868 362.323C390.629 373.761 382.311 375.32 371.913 367.002C362.554 357.644 354.236 358.684 346.958 370.121C339.679 381.559 331.361 382.599 322.002 373.241" stroke="#FF6633" stroke-width="4" stroke-linecap="round"/>
<path d="M212.012 221.856L201.606 226.126L191.683 221.314L193.787 232.14L184.224 240.74L196.764 241.673L201.033 252.078L205.846 242.154L217.965 240.922L208.492 232.652L212.012 221.856Z" fill="#EB4770"/>
<path d="M130.94 437.968L90.3882 417.692L126.261 391.177L130.94 437.968Z" fill="#F2675A"/>
<path d="M3.04441 27.7685L10.8429 60.5221L-32.8285 71.4399L-40.627 40.2461L3.04441 27.7685Z" fill="#EB4770"/>
<path d="M193.327 459.803L236.998 466.042L232.319 497.236L188.648 490.997L193.327 459.803Z" fill="#F2675A"/>
<path d="M286.861 49.1321C287.687 39.6928 282.791 31.5539 275.927 30.9533C269.062 30.3527 262.827 37.5178 262.001 46.9571C261.175 56.3964 266.071 64.5353 272.936 65.1359C279.801 65.7365 286.035 58.5714 286.861 49.1321Z" fill="#DD3C8C"/>
<path d="M130.939 65.2009L171.491 93.2753" stroke="#FF6633" stroke-width="4" stroke-linecap="round"/>
<path d="M64.0644 69.2666C59.4707 60.9793 51.4715 56.6309 46.1978 59.5542C40.924 62.4775 40.3728 71.5655 44.9665 79.8528C49.5602 88.1401 57.5594 92.4885 62.8331 89.5652C68.1069 86.6419 68.6581 77.5539 64.0644 69.2666Z" fill="#F2675A"/>
<path d="M361.774 19.97H325.901V-23.7014H361.774V19.97Z" fill="#FFE14C"/>
<path d="M227.641 306.954L216.723 324.11H196.447L208.925 339.707L202.686 358.424L221.402 350.625L236.999 363.103V342.827L252.596 331.909L233.88 325.67L227.641 306.954Z" fill="#EE7C2B"/>
</svg>
