<svg width="18" height="19" viewBox="0 0 18 19" fill="none" xmlns="http://www.w3.org/2000/svg">
<g clip-path="url(#clip0_523_7654)">
<path d="M9 0.176758C4.02948 0.176758 0 4.20624 0 9.17676C0 13.3974 2.90592 16.9391 6.82596 17.9118V11.9272H4.97016V9.17676H6.82596V7.99164C6.82596 4.9284 8.21232 3.50856 11.2198 3.50856C11.79 3.50856 12.7739 3.62052 13.1764 3.73212V6.22512C12.964 6.2028 12.595 6.19164 12.1367 6.19164C10.661 6.19164 10.0908 6.75072 10.0908 8.20404V9.17676H13.0306L12.5255 11.9272H10.0908V18.1109C14.5472 17.5727 18.0004 13.7783 18.0004 9.17676C18 4.20624 13.9705 0.176758 9 0.176758Z" fill="white"/>
</g>
<defs>
<clipPath id="clip0_523_7654">
<rect width="18" height="18" fill="white" transform="translate(0 0.176758)"/>
</clipPath>
</defs>
</svg>
