<svg width="18" height="19" viewBox="0 0 18 19" fill="none" xmlns="http://www.w3.org/2000/svg">
<g clip-path="url(#clip0_523_7650)">
<path d="M9 7.54041V11.0259H13.8436C13.6309 12.1468 12.9927 13.0959 12.0354 13.7341L14.9563 16.0005C16.6581 14.4296 17.64 12.1223 17.64 9.3814C17.64 8.74323 17.5827 8.12954 17.4763 7.5405L9 7.54041Z" fill="white"/>
<path d="M3.95596 10.8898L3.29719 11.3941L0.965332 13.2104C2.44624 16.1476 5.48147 18.1768 8.99962 18.1768C11.4296 18.1768 13.4668 17.3749 14.9559 16.0004L12.035 13.734C11.2332 14.274 10.2105 14.6013 8.99962 14.6013C6.65963 14.6013 4.67151 13.0223 3.95964 10.895L3.95596 10.8898Z" fill="white"/>
<path d="M0.965384 5.14307C0.351781 6.35393 0 7.72031 0 9.17665C0 10.633 0.351781 11.9994 0.965384 13.2102C0.965384 13.2184 3.95998 10.8866 3.95998 10.8866C3.77998 10.3466 3.67359 9.77391 3.67359 9.17655C3.67359 8.5792 3.77998 8.00651 3.95998 7.46651L0.965384 5.14307Z" fill="white"/>
<path d="M8.99981 3.76039C10.3253 3.76039 11.5034 4.21856 12.4443 5.10221L15.0216 2.52497C13.4589 1.06863 11.4298 0.176758 8.99981 0.176758C5.48165 0.176758 2.44624 2.19766 0.965332 5.14313L3.95984 7.46677C4.67161 5.33947 6.65982 3.76039 8.99981 3.76039Z" fill="white"/>
</g>
<defs>
<clipPath id="clip0_523_7650">
<rect width="18" height="18" fill="white" transform="translate(0 0.176758)"/>
</clipPath>
</defs>
</svg>
