<svg width="18" height="19" viewBox="0 0 18 19" fill="none" xmlns="http://www.w3.org/2000/svg">
<g clip-path="url(#clip0_523_7652)">
<path d="M9 1.79746C11.4047 1.79746 11.6895 1.80801 12.6352 1.8502C13.5141 1.88887 13.9887 2.03652 14.3051 2.15957C14.7234 2.32129 15.0258 2.51816 15.3387 2.83105C15.6551 3.14746 15.8484 3.44629 16.0102 3.86465C16.1332 4.18105 16.2809 4.65918 16.3195 5.53457C16.3617 6.48379 16.3723 6.76855 16.3723 9.16973C16.3723 11.5744 16.3617 11.8592 16.3195 12.8049C16.2809 13.6838 16.1332 14.1584 16.0102 14.4748C15.8484 14.8932 15.6516 15.1955 15.3387 15.5084C15.0223 15.8248 14.7234 16.0182 14.3051 16.1799C13.9887 16.3029 13.5105 16.4506 12.6352 16.4893C11.6859 16.5314 11.4012 16.542 9 16.542C6.59531 16.542 6.31055 16.5314 5.36484 16.4893C4.48594 16.4506 4.01133 16.3029 3.69492 16.1799C3.27656 16.0182 2.97422 15.8213 2.66133 15.5084C2.34492 15.192 2.15156 14.8932 1.98984 14.4748C1.8668 14.1584 1.71914 13.6803 1.68047 12.8049C1.63828 11.8557 1.62773 11.5709 1.62773 9.16973C1.62773 6.76504 1.63828 6.48027 1.68047 5.53457C1.71914 4.65566 1.8668 4.18105 1.98984 3.86465C2.15156 3.44629 2.34844 3.14394 2.66133 2.83105C2.97773 2.51465 3.27656 2.32129 3.69492 2.15957C4.01133 2.03652 4.48945 1.88887 5.36484 1.8502C6.31055 1.80801 6.59531 1.79746 9 1.79746ZM9 0.176758C6.55664 0.176758 6.25078 0.187305 5.29102 0.229492C4.33477 0.27168 3.67734 0.426367 3.10781 0.647851C2.51367 0.879883 2.01094 1.18574 1.51172 1.68848C1.00898 2.1877 0.703125 2.69043 0.471094 3.28105C0.249609 3.8541 0.0949219 4.50801 0.0527344 5.46426C0.0105469 6.42754 0 6.7334 0 9.17676C0 11.6201 0.0105469 11.926 0.0527344 12.8857C0.0949219 13.842 0.249609 14.4994 0.471094 15.0689C0.703125 15.6631 1.00898 16.1658 1.51172 16.665C2.01094 17.1643 2.51367 17.4736 3.1043 17.7021C3.67734 17.9236 4.33125 18.0783 5.2875 18.1205C6.24727 18.1627 6.55312 18.1732 8.99648 18.1732C11.4398 18.1732 11.7457 18.1627 12.7055 18.1205C13.6617 18.0783 14.3191 17.9236 14.8887 17.7021C15.4793 17.4736 15.982 17.1643 16.4813 16.665C16.9805 16.1658 17.2898 15.6631 17.5184 15.0725C17.7398 14.4994 17.8945 13.8455 17.9367 12.8893C17.9789 11.9295 17.9895 11.6236 17.9895 9.18027C17.9895 6.73691 17.9789 6.43105 17.9367 5.47129C17.8945 4.51504 17.7398 3.85762 17.5184 3.28809C17.2969 2.69043 16.991 2.1877 16.4883 1.68848C15.9891 1.18926 15.4863 0.879883 14.8957 0.651367C14.3227 0.429883 13.6688 0.275195 12.7125 0.233008C11.7492 0.187305 11.4434 0.176758 9 0.176758Z" fill="white"/>
<path d="M9 4.55371C6.44766 4.55371 4.37695 6.62441 4.37695 9.17676C4.37695 11.7291 6.44766 13.7998 9 13.7998C11.5523 13.7998 13.623 11.7291 13.623 9.17676C13.623 6.62441 11.5523 4.55371 9 4.55371ZM9 12.1756C7.34414 12.1756 6.00117 10.8326 6.00117 9.17676C6.00117 7.5209 7.34414 6.17793 9 6.17793C10.6559 6.17793 11.9988 7.5209 11.9988 9.17676C11.9988 10.8326 10.6559 12.1756 9 12.1756Z" fill="white"/>
<path d="M14.8852 4.37092C14.8852 4.96858 14.4 5.45022 13.8059 5.45022C13.2082 5.45022 12.7266 4.96507 12.7266 4.37092C12.7266 3.77327 13.2117 3.29163 13.8059 3.29163C14.4 3.29163 14.8852 3.77678 14.8852 4.37092Z" fill="white"/>
</g>
<defs>
<clipPath id="clip0_523_7652">
<rect width="18" height="18" fill="white" transform="translate(0 0.176758)"/>
</clipPath>
</defs>
</svg>
