<svg width="18" height="19" viewBox="0 0 18 19" fill="none" xmlns="http://www.w3.org/2000/svg">
<g clip-path="url(#clip0_523_7651)">
<path d="M16.6676 0.176758H1.32891C0.594141 0.176758 0 0.756836 0 1.47402V16.876C0 17.5932 0.594141 18.1768 1.32891 18.1768H16.6676C17.4023 18.1768 18 17.5932 18 16.8795V1.47402C18 0.756836 17.4023 0.176758 16.6676 0.176758ZM5.34023 15.5154H2.66836V6.92324H5.34023V15.5154ZM4.0043 5.75254C3.14648 5.75254 2.45391 5.05996 2.45391 4.20566C2.45391 3.35137 3.14648 2.65879 4.0043 2.65879C4.85859 2.65879 5.55117 3.35137 5.55117 4.20566C5.55117 5.05645 4.85859 5.75254 4.0043 5.75254ZM15.3387 15.5154H12.6703V11.3389C12.6703 10.3439 12.6527 9.06074 11.2816 9.06074C9.89297 9.06074 9.68203 10.1471 9.68203 11.2686V15.5154H7.01719V6.92324H9.57656V8.09746H9.61172C9.9668 7.42246 10.8387 6.70879 12.1359 6.70879C14.8395 6.70879 15.3387 8.4877 15.3387 10.801V15.5154Z" fill="white"/>
</g>
<defs>
<clipPath id="clip0_523_7651">
<rect width="18" height="18" fill="white" transform="translate(0 0.176758)"/>
</clipPath>
</defs>
</svg>
