<svg width="316" height="52" viewBox="0 0 316 52" fill="none" xmlns="http://www.w3.org/2000/svg">
<path d="M281.801 20.4019L282.463 14.0904H314.513L315.836 0.344116H270.532L257.008 11.6706L254.97 31.8062H286.947L286.304 38.128H254.309L252.913 51.8008H298.316L311.718 40.5782L313.852 20.4019H281.801Z" fill="white"/>
<path fill-rule="evenodd" clip-rule="evenodd" d="M189.394 51.8008L194.54 0.344116H238.261L251.71 11.6646L249.039 38.1236L216.102 38.1288L214.738 51.8008H189.394ZM224.721 14.0907H218.487L216.734 31.8099H222.925L224.721 14.0907Z" fill="white"/>
<path d="M129.357 0.344116H189.414L184.268 51.8008H157.364L158.76 38.0545H152.511L151.137 51.8008H124.211L129.357 0.344116ZM159.329 31.8099C159.477 30.2907 160.231 23.0586 160.378 21.5884C160.476 20.3142 160.598 18.991 160.745 17.6188C160.892 16.2467 161.015 15.0705 161.113 14.0904H154.909L153.134 31.8099H159.329Z" fill="white"/>
<path d="M95.0718 0.344116H69.3435L65.3 40.4031L78.7122 51.8008H119.11L120.433 38.0545H91.3232L95.0718 0.344116Z" fill="white"/>
<path d="M61.9852 22.6175L64.1906 0.344116H17.8004L4.15896 11.6775L0.163574 51.8008H46.6996L60.2794 40.4215L61.3234 28.9393H34.4925L33.5369 38.0545H27.2886L29.6409 14.0904H35.8899L35.0358 22.6175H61.9852Z" fill="white"/>
</svg>
