<svg width="120" height="127" viewBox="0 0 120 127" fill="none" xmlns="http://www.w3.org/2000/svg">
<path d="M6.13049 125.354H44.6091H60.0006H98.4793C101.309 125.354 103.61 123.036 103.61 120.187V66.3519L109.035 69.1988C109.405 69.3925 109.813 69.4907 110.22 69.4907C110.479 69.4907 110.739 69.4519 110.99 69.3718C111.639 69.1652 112.18 68.7105 112.493 68.1008L118.421 56.6436C119.727 54.117 118.747 50.9911 116.241 49.6762L88.798 35.2791C90.309 34.3155 91.5736 32.9979 92.4227 31.3549C93.69 28.9033 93.9362 26.1055 93.1128 23.4756C92.2919 20.8458 90.4962 18.6938 88.0644 17.415C85.6325 16.1389 82.8518 15.8909 80.2378 16.7201C78.2344 17.3556 75.4921 19.5437 72.0752 23.2173C73.1064 18.2934 73.3142 14.7774 72.6832 12.7572C71.8623 10.1274 70.0666 7.9754 67.6322 6.69921C65.1978 5.42561 62.4171 5.17761 59.8082 6.00429C57.1968 6.83097 55.06 8.63933 53.7927 11.091C52.9436 12.734 52.5948 14.532 52.6794 16.3326L25.2364 1.93548C22.7327 0.623123 19.6237 1.60481 18.318 4.13134L12.3922 15.5886C11.7381 16.8545 12.2255 18.4148 13.4825 19.0736L68.3428 47.8523H60.0006H44.6091H3.56524C2.14923 47.8523 1 49.0097 1 50.4357V120.187C1 123.036 3.30102 125.354 6.13049 125.354ZM81.7821 21.6492C83.0878 21.2333 84.4782 21.3624 85.6941 22.0005C86.9126 22.6412 87.8104 23.7159 88.2209 25.0282C88.6313 26.3432 88.5082 27.7408 87.872 28.9679C87.2384 30.195 86.1687 31.0992 84.8655 31.5125C84.5987 31.5978 83.7291 31.7424 81.6461 31.5254L74.7636 27.9139C78.4165 23.827 80.7971 21.9618 81.7821 21.6492ZM57.9972 17.4176C57.5867 16.1027 57.7099 14.7051 58.346 13.478C58.9796 12.2509 60.0494 11.3467 61.3525 10.9334C62.6556 10.52 64.046 10.644 65.2671 11.2847C66.4856 11.9254 67.3834 13.0001 67.7938 14.3124C68.1042 15.307 67.9503 18.3399 66.7164 23.6978L59.8313 20.0863C58.464 18.4871 58.0818 17.6837 57.9972 17.4176ZM22.8687 6.51838L113.871 54.2565L109.13 63.4223L102.05 59.7074C102.048 59.7074 102.045 59.7049 102.042 59.7023L18.1281 15.6816L22.8687 6.51838ZM98.4793 63.66V120.187H62.5659V53.0191H78.1908L98.4793 63.66ZM57.4354 53.0191V120.187H47.1744V53.0191H57.4354ZM6.13049 53.0191H42.0439V120.187H6.13049V53.0191Z" fill="#EEE08D" stroke="#EEE08D" stroke-width="2"/>
</svg>
