<svg width="16" height="17" viewBox="0 0 16 17" fill="none" xmlns="http://www.w3.org/2000/svg">
<path fill-rule="evenodd" clip-rule="evenodd" d="M2.28571 0.35376C1.02335 0.35376 0 1.37711 0 2.63947V14.068C0 15.3304 1.02335 16.3538 2.28571 16.3538H13.7143C14.9767 16.3538 16 15.3304 16 14.068V2.63947C16 1.37711 14.9767 0.35376 13.7143 0.35376H2.28571ZM12.5474 4.42019C12.6659 4.46643 12.7735 4.53543 12.8639 4.62307H12.8652C13.0408 4.79406 13.1405 5.02522 13.1428 5.26691C13.1452 5.50861 13.05 5.74158 12.8778 5.91579L7.8259 12.0593C7.73909 12.1501 7.63437 12.2229 7.518 12.2735C7.40162 12.3241 7.27597 12.3513 7.14853 12.3536C7.0211 12.3559 6.89449 12.3332 6.77627 12.2869C6.65804 12.2405 6.55062 12.1715 6.46042 12.0839L3.11188 8.82502C2.94422 8.64998 2.85295 8.41847 2.85729 8.17925C2.86163 7.94003 2.96124 7.7118 3.13514 7.54262C3.30903 7.37344 3.54364 7.27653 3.78953 7.27231C4.03542 7.26809 4.27339 7.35689 4.45332 7.51999L7.10203 10.098L11.4971 4.65015C11.5838 4.55901 11.6884 4.4858 11.8048 4.43491C11.9213 4.38401 12.047 4.35648 12.1746 4.35395C12.3022 4.35142 12.429 4.37395 12.5474 4.42019Z" fill="#E5FF3A"/>
</svg>
