<svg width="18" height="19" viewBox="0 0 18 19" fill="none" xmlns="http://www.w3.org/2000/svg">
<path d="M17.8207 5.57673C17.8207 5.57673 17.6449 4.33572 17.1035 3.7908C16.418 3.07361 15.6516 3.07009 15.3 3.02791C12.7828 2.84509 9.00352 2.84509 9.00352 2.84509H8.99648C8.99648 2.84509 5.21719 2.84509 2.7 3.02791C2.34844 3.07009 1.58203 3.07361 0.896484 3.7908C0.355078 4.33572 0.182812 5.57673 0.182812 5.57673C0.182812 5.57673 0 7.03572 0 8.49119V9.85525C0 11.3107 0.179297 12.7697 0.179297 12.7697C0.179297 12.7697 0.355078 14.0107 0.892969 14.5556C1.57852 15.2728 2.47852 15.2482 2.8793 15.3256C4.3207 15.4627 9 15.5049 9 15.5049C9 15.5049 12.7828 15.4978 15.3 15.3185C15.6516 15.2763 16.418 15.2728 17.1035 14.5556C17.6449 14.0107 17.8207 12.7697 17.8207 12.7697C17.8207 12.7697 18 11.3142 18 9.85525V8.49119C18 7.03572 17.8207 5.57673 17.8207 5.57673ZM7.14023 11.5111V6.45212L12.0023 8.99041L7.14023 11.5111Z" fill="white"/>
</svg>
